<svg xmlns="http://www.w3.org/2000/svg" viewBox="0 0 96 96" role="img" aria-label="OmniTools mark">
  <defs>
    <linearGradient id="g" x1="0" x2="1" y1="0" y2="1">
      <stop stop-color="#57B9FF"/>
      <stop offset="1" stop-color="#517891"/>
    </linearGradient>
  </defs>
  <rect x="4" y="4" width="88" height="88" rx="24" fill="url(#g)"/>
  <path d="M48 22c-15 0-26 11-26 26s11 26 26 26 26-11 26-26S63 22 48 22Zm0 10c9 0 16 6 16 16s-7 16-16 16-16-6-16-16 7-16 16-16Z" fill="#FFFFFF"/>
  <path d="M65 17c13-7 25-2 29 8-10 2-20 1-29-8Z" fill="#90D5FF"/>
</svg>
